<?xml version="1.0" encoding="UTF-8"?><svg id="Layer_3" xmlns="http://www.w3.org/2000/svg" viewBox="0 0 301.28 70.73"><defs><style>.cls-1{fill:#c2202c;}</style></defs><path class="cls-1" d="M14.39,42.29c-.14.41.43.51.57.94-.27.08-.54.17-.77.24-.8-.44-1.11-1.15-1.4-1.86-.21.19-.43.38-.77.68-.11-.67-.2-1.23-.3-1.85h-2.13c-.36.35-.73.71-1.2,1.17-.11-.26-.17-.5-.3-.69-.27-.41-.58-.79-.92-1.24-.23.49-.43.9-.61,1.29h-.74c-.12-.34-.24-.7-.41-1.16-.45-.03-.94-.07-1.23-.09-.87-.79-1.62-1.47-2.35-2.14.02-.26.04-.45.07-.77.86-.26,1.79-.08,2.71-.14.22.2.44.4.77.7.12-.62.22-1.17.33-1.72.44-.4.99-.08,1.44-.2.23-.2.45-.39.65-.56.24.19.45.36.78.64.1-.7.19-1.26.27-1.83,1.06.34,1.32,1.56,2.38,1.76q.31.55,1.07.49c.06-.08.17-.15.18-.23.01-1.02,0-2.03,0-2.98-.25-.28-.45-.5-.63-.71,0-.45,0-.88.66-.86.53,0,1.4.97,2.03,2.33.28.07.57.13.85.22.09.03.16.13.22.19v.63c.3.29.59.58.89.87.8-.35.92-1.18,1.33-1.81.45-.69,1.34-.67,1.95-1.1.15.14.3.29.45.44.57-.13.49-.61.32-.87-.27-.41-.77-.68-.46-1.29.65-.44,1.39-.12,2.08-.21.23-.21.45-.41.66-.6.64-.25.86.4,1.28.53.24-.2.48-.38.81-.65.33.2.66.39,1.08.64.21-.19.49-.44.79-.71-.07-.15-.1-.33-.21-.42-.91-.71-2.09-1.18-3.22-1.31-.47-.64-.12-1.37-.23-2.09-.4-.19-.83-.38-1.24-.57v-.64c.92-1.12,2.45-1.24,3.5-2.16h3.72c.17-.16.32-.31.57-.56h4.39c.26-.25.41-.4.55-.54.94-.33,2.01.21,3.03-.45-.99-.46-1.92-.22-2.83-.26-.94-.04-1.88,0-2.82,0h-5.43c-.3-.29-.45-.44-.61-.6h-11.25c-.23-.21-.46-.42-.69-.63-1.66,0-3.33,0-5,0-.15-.14-.3-.29-.55-.54h-1.88c-.26-.25-.41-.4-.6-.59-.44-.05-.93-.11-1.52-.18-.06-.25-.13-.53-.26-1.1-.26-.2-.75-.58-1.21-.93.17-1.14,1.11-1.52,1.69-2.2h1.19c.27-.23.5-.42.65-.55h1.86c.28.21.48.37.79.61.09-.42.15-.7.22-1.03.58-.54,1.35-.12,2.06-.24.21.19.44.38.68.59.26-.48.52-.98.85-1.6-.53-.52-1.16-1.14-1.78-1.75.69-.68,1.36-1.33,2.02-1.98.58-.31,1.21-.1,1.95-.18.14-.1.38-.27.8-.58h2.41c.26-.25.41-.4.66-.65h5.64c.26-.25.41-.4.58-.57h6.22c.24-.21.47-.41.71-.63h8.73c.23-.21.46-.41.67-.6.23.2.46.4.78.69.32-.16.67-.33,1.15-.58.08.06.29.22.55.42.18-.15.39-.32.63-.51.2.17.42.36.64.55.14-.13.29-.26.43-.4.08-.07.15-.19.23-.19,4.17,0,8.35,0,12.5,0,.17-.16.32-.31.46-.45.08-.05.16-.15.25-.15,5.84,0,11.68,0,17.46,0,.2-.2.35-.34.61-.6h9.47c.12-.28.19-.46.27-.6,1.62-.04,3.23-.1,4.84-.18.04,0,.08-.13.12-.2-2.35-.37-3.29-.36-4.96.39-.31-.03-.63-.03-.93-.03-.23-.21-.46-.42-.66-.6-.68-.24-.89.43-1.5.66-.24-.13-.58-.31-1.16-.62h-6.78c-.2.19-.34.34-.6.58h-16.29c-.25.25-.4.39-.55.54-.7.05-1.41.19-2.16-.13-.02-.25-.04-.53-.06-.76.12-.12.19-.25.27-.25,3.34-.01,6.67,0,9.99,0,.24-.22.47-.42.68-.62.22.19.44.38.65.57.17-.16.31-.31.55-.53.19.14.39.29.68.51h1.96c.26-.06.44-.79,1.15-.54.18.15.41.35.65.56.21-.19.43-.38.65-.59h21.89c.22-.2.44-.4.66-.6.16.15.3.3.55.54.18-.13.38-.28.68-.5h2.57c.19.18.33.33.53.51.21-.17.42-.34.66-.53.2.18.42.37.64.56.14-.13.29-.27.44-.41.18-.06.36-.18.54-.18,6.99,0,13.98,0,20.94,0,.24-.21.46-.4.66-.57.25.21.48.41.65.54.73.25.89-.51,1.6-.61.2.12.52.32.91.56.15-.13.37-.31.55-.46h67.17c.22.21.36.36.53.52.22-.19.43-.38.67-.58h1.85c.22.2.45.41.65.6h1.23c.25-.22.48-.42.66-.57h4.4c.18.17.33.32.52.51.29-.17.59-.36,1.02-.61.27.18.6.38.96.62.16-.14.38-.33.62-.53h1.23c.22.19.44.39.65.58.23-.2.46-.4.78-.69.32.16.66.34,1.12.57.18-.11.48-.29.92-.55.27.18.6.38.94.61.25-.18.56-.39.95-.66.34.26.64.49.93.72.23-.2.46-.4.78-.68.32.16.66.34,1.36.7h7.29c.12.28.19.45.26.63-.52,0-1.04,0-1.55,0-.23.2-.44.4-.66.59-.16-.16-.31-.3-.46-.45-4.54-.29-12.05-.23-14.21.12.05.07.08.18.14.21.18.07.38.13.57.13,3.64,0,7.28,0,10.84,0,.22.21.37.36.62.61h6.27c.25.25.4.39.65.64h8.15c.25.25.4.39.65.64h9.4c.25.25.4.39.56.55h3.72c.23.21.46.42.69.63h2.48c.23.21.45.41.69.63h4.36c.16.15.31.3.55.54,1.01.18,2.14-.03,3.25.12.15.14.29.29.55.54h4.39c.25.25.4.39.6.59.2-.16.41-.32.66-.52.19.16.41.34.65.55h3.15c.24.28.51.59.8.91-.06.07-.15.31-.25.31-1.24.04-2.49.04-3.74.06-.08,0-.15.13-.22.2.14.52.63.29.95.44.37.36.74.72,1.14,1.12.21-.17.42-.35.68-.56h3.11c.19.17.42.38.65.59h1.85c.23.21.46.41.69.63h1.2c.25.22.48.42.72.63h1.82c.29.54.56,1.04.84,1.57-.13.14-.33.36-.53.57.42.5.98.19,1.5.29.43-.4.88-.82,1.32-1.23h1.24c.72.65.16,1.06-.37,1.57.78.42,1.56.25,2.28.18.23-.18.44-.34.76-.58.07.43.11.71.16,1.04-.4.14-.76.26-1.2.41.16.28.3.56.46.84-.44.45-1,.03-1.42.24-.27-.24-.49-.43-.78-.69-.1.33-.18.61-.26.87.72.38,1.49.63,1.93,1.39-.37.13-.79.18-1.08.39-.33.25-.6.55-1.11.42-.67-.37-.09-1.11-.45-1.65-.29-.36-.74-.09-1.13-.17v-1.6c-.25-.09-.52-.19-.72-.27-.78.25-.95,1.16-1.76,1.26-.68.08-1,.59-1.28,1.1-.07.97,1.24,1.06,1.25,1.96h-1.02c-.07.24-.12.52-.25.77-.15.3-.37.57-.56.85.35.31.63.56.88.79.36-.33.66-.6.94-.86v-1.55c.18.07.36.14.58.23v1.97c-.06.28-.85.43-.39,1.33.07.07.35.36.63.65.64-.13.8-.82,1.69-1.1h.87c.24-.21.46-.41.73-.65.3.38.66.73.89,1.15.32.58.48,1.25.85,1.79.34.5.86.88,1.33,1.34h1.97c.33.41.72.88,1.02,1.26h.88c.09.25.19.52.34.92-.48.36-.97.73-1.35,1.01v1.41c-.21.22-.41.44-.6.65.21.23.41.45.58.63.09.53-.17,1.06.33,1.53.21-.45.41-.85.61-1.29.28.54.54,1.04.85,1.62-.11.12-.3.33-.49.55.19.21.39.42.59.63v1.22c-.17.1-.34.28-.5.29-2.48.02-4.97.01-7.32.01-.27.27-.42.41-.67.66h-2.68c.12.75.75.96,1.08,1.42-.1.12-.19.36-.3.36-1.66.02-3.32.02-4.99.02-.22.43-.42.84-.68,1.36-.83-.42-1.6-.81-2.41-1.21-.75.37-1.59.79-2.46,1.23-.26-.55-.46-.97-.65-1.36h-.66c-.53.39-.21.95-.32,1.51-.22.23-.5.52-.81.84-.47.05-.96.11-1.44.16-.09.09-.22.16-.23.23-.02.81,0,1.63,0,2.43-.21.23-.41.44-.62.66.3.29.59.58.9.88.22-.2.44-.39.66-.59.51,0,1.03,0,1.45-.02.19.27.37.6.55.6.46.01.99.22,1.4-.24-.52-.65-1.24-.22-1.95-.36.35-.49.6-1,.93-1.67.18-.06.54-.19.95-.33.05-.46.11-.94.17-1.42.42-.45.98-.13,1.46-.24.23.2.45.41.68.62h1.31c.09.25.19.52.34.94-.7.56-1.42,1.13-1.98,1.57v.88c.42.49.97.24,1.46.28.41.03.83,0,1.25,0h1.52c.1-.84-.51-.45-1.05-1.19.09.26,0-.11-.17-.43-.07-.13-.34-.15-.52-.23v-2.12c-.2-.21-.41-.43-.74-.77.45-.08.8-.13,1.22-.21.08.41.14.68.2,1.01.47.46.98.96,1.44,1.41.33.06.61.12.98.19v1.96c.4.4.68.69.95.97h1.26c.75-.64.03-1.54.42-2.24.18-.07.35-.14.53-.21v1.5c.19.2.4.42.66.69-.44.38-.89.76-1.44,1.23.22.36.42.66.58.99.16.33.27.68.39,1.01.62.22.69.19,1.06-.51.17-.07.47-.11.5-.21.09-.37-.19-.43-.5-.41-.06-.65.7-.7.83-1.28.52.47.95.88,1.4,1.29h1.39c.05.34.09.69.14,1.04-1.77.23-3.17.85-4.15,2.12-.69-.33-1.21-.58-1.66-.81-1.01.72.13,1.89-.79,2.51-.3-.29-.59-.58-.89-.87.23-.41.91-.61.41-1.42-.67-.35-1.62-.04-2.72-.17-.27.26-.62.61-.82.81-.18,1.18.9,1.26,1.07,2.09-.14.15-.41.43-.65.68-1.21.68-2.02-.9-3.51-.24.03-.02-.29.2-.71.5-.34-.24-.65-.47-1.02-.74h-1.74c-.34.26-.65.49-.81.61-.83.02-1.07-1-1.93-.48-.05.2-.12.47-.19.77.33.29.64.56,1.02.89.89.46,1.55-.52,2.4-.61.26.24.49.45.71.65.22-.2.44-.4.65-.6.88-.18,1.32,1.12,2.63.42-.08.06.15-.11.43-.32.27.16.58.34,1.02.59.27-.18.59-.4,1-.67.19.26.43.59.7.95-.27.13-.66.31-1.04.49.15.52.66.27.96.45.22.13.41.32.6.48.21-.21.36-.35.54-.53.21.18.43.36.78.66h2.96c-.38.11-2.68.76-2.82.8.48.23.87.42,1.27.6-.4.81-1.41-.05-1.91.79,1.02.36,2.06.11,3.05.19.88.07,1.81-.18,3.03.35-1.27.39-2.2.21-3.08.26-.39.29-.76.56-1.18.87,1.14.74,2.26-.03,3.23.6-.19.22-.37.43-.58.68.41.19.82.38,1.23.57v.64c-.51.26-1.02.52-1.77.89h-1.59c-.24.21-.47.41-.73.63h-6.21c-.23.21-.46.42-.69.63h-13.14c-.15.15-.3.29-.59.57-1.8.11-3.77-.03-5.71.07-.15.15-.3.29-.56.55h-13.16c-.26.25-.4.4-.66.64h-22.56c-.26.25-.4.39-.65.64h-68.3c-.25.24-.4.39-.57.56h-20.06c-.17-.15-.4-.35-.63-.55-.29.22-.6.44-.96.72-.38-.29-.69-.52-1.02-.76h-60.09c-.16-.16-.31-.3-.57-.56h-10.03c-.26-.25-.4-.4-.66-.65h-3.76c-.26-.25-.41-.4-.59-.58h-4.52c-.51-.62-1.09-1.33-1.56-1.89h-2.75c-.74-.68-.12-1.07.31-1.51v-1.21c.79-.6,1.16-1.72,2.43-1.62-.09-.66-.56-1.07-.91-1.12-.63-.1-.83-.25-.93-.88-.07-.4-.62-.73-.85-.97-1.2-.22-.8.8-1.27,1.15-.2-.17-.42-.35-.67-.55h-1.84c-.35.12-.45.69-.97.59-.07-.17-.11-.46-.21-.49-.38-.08-.44.19-.42.49-.38-.07-.58.16-.61.46-.05.41.03.81.61.76.07.17.14.49.22.5.89.04,1.46,1.13,2.85.58.07-.07.41-.39.72-.69-.28-.34-.45-.54-.71-.85.41-.08.69-.14.94-.18.78.6.05,1.39.36,2.02.19.29.38.57.65,1h-1.49c-1.21.97.59,1.39.21,2.15q-.7.46-1.5-.15c-.27.17-.57.35-.97.6-.36-.21-.77-.44-1.31-.75-.26.17-.58.38-.98.65-.08-.2-.29-.48-.23-.66.2-.56.56-1.03,1.19-1.22.1.39.06.86.6.45-.17-.14-.34-.28-.6-.45.26-.89-.64-1.47-.85-2.3-.09-.36-.32-.68-.56-1.15-.21-.07-.64-.12-.92-.34-.34-.28-.62-.51-1.08-.4-.59-.59-1.18-1.16-1.83-1.81-.2.16-.41.31-.64.49-.67.1-1.39.27-1.89-.51h-1.9c-.18.15-.4.35-.69.6-.24-.3-.49-.61-.86-1.08v-1.14c-.41-.3-.91-.66-1.29-.94v-1.68c-.58-.47-1.29-1.04-1.99-1.6.15-.41.24-.68.34-.97.27.24.49.43.71.62.22-.19.43-.37.65-.56.32.31.61.6.91.89v.62c.51.49,1.03.98,1.55,1.48.35-.11.45-.67.96-.57-.02.62.57.81.91,1.15.14.14.54.02.77.02.48-.89.04-1.53-.32-2.19.44-.41.99-.09,1.47-.21.47-.74.59-1.72,1.91-2.09-.7-.23-1.05-.34-1.41-.46-.13-.35-.27-.71-.41-1.09-.17.14-.38.24-.4.36-.05.4-.02.8-.02,1.14-.47.53-1.03.21-1.53.32-.22-.2-.44-.4-.68-.62h-2.47c-.23-.2-.45-.4-.65-.59-.23.19-.44.37-.65.55-.4-.39-.73-.99-1.14-1.05-.66-.09-.99-.65-1.57-.75-.3-.05-.62,0-.97,0-.21.19-.44.39-.69.61h-.58c-.21,0-.42-.02-.62,0-.08.01-.15.14-.23.18-.58.32-1.16.64-1.75.96-.13-.12-.27-.27-.49-.48h-1.61c-.72-.38-1.3-.69-1.88-1.01.59-.58,1.41-1.06,1.7-1.76.29-.68.62-1.19,1.2-1.59.7-.08.95.24.83.94.29.25.6.53.94.83h2c.15-.42.28-.78.43-1.18.27.24.49.43.72.63h1.89c.26-.27.54-.57.87-.92-.39-.19-.79-.37-1.17-.56.12-.38.69-.48.59-.97.97.21,1.56-.64,2.37-.8-.2-.48-.37-.97-.61-1.44-.06-.12-.33-.14-.47-.13-.1-.39-.06-.86-.6-.45.17.14.34.28.6.45-.04.21-.04.51-.04.9-.39.36-.82.76-1.25,1.18-.05.05,0,.19,0,.29h-1.64c-.11.33-.23.68-.35,1.03-.57.29-1.13.33-1.74-.06.18-.21.36-.42.54-.63-.18-.4-.81-.62-.56-1.23.2-.21.41-.43.62-.65,0-.51,0-1.01,0-1.52.21,0,.42,0,.59-.09.1.39.06.86.6.45-.17-.14-.34-.28-.6-.45.23-.23.41-.56.61-.89-.69-.67-1.41-1.38-2.22-2.17-.43.76-.09,1.58-.38,2.28-.2.32-.42.65-.46,1-.03.29.22.53.6.46-.08.58.18,1.19-.25,1.81-.22-.17-.42-.33-.67-.52-.19.15-.4.32-.65.54-.19-.4-.38-.79-.56-1.16-.35.2-.67.38-.97.65-.1-.39-.06-.86-.6-.45.17.14.34.28.6.45ZM264.83,45.34c.49-.14.97-.09.55-.63-.15.17-.29.33-.2.49-.49.14-.97.09-.55.63.15-.17.29-.33.2-.49ZM30.58,31.62c.14.48.09.95.64.53-.17-.14-.34-.28-.5-.19-.14-.48-.09-.95-.64-.53.17.14.34.28.5.19ZM268.77,20.75c.4-.11.97.3,1.2-.36q-.83-.27-1.13.41s-.08-.08-.12-.12c-.17.14-.34.28-.51.43.07.06.13.13.2.19.15-.17.29-.33.37-.56ZM26.33,32.57c-.14-.48-.09-.95-.64-.53.17.14.34.28.57.36v1.55c.56.27,1.12.54,1.8.87v-1.57c-.28-.28-.57-.57-.86-.85-.32,0-.63,0-.87.17ZM31.25,53.86c1.03-.11.36,1.06,1,1.23.48-.11,1.03.21,1.45-.23.03-.19.05-.39.08-.6-.47-.92-1.52-1.04-2.43-1.62-.04.45-.08.83-.08,1.21q-.64.36-.37,1.17c.67-.23.25-.78.34-1.17ZM37.91,30.03c.59-.25,1.14-.7,1.64-.65.69.07,1.02-.46,1.55-.56.16.16.31.3.44.43h7.06c.33-.35.61-.64.91-.96-.11-.29-.21-.56-.3-.81h-.69c-.22.2-.44.4-.67.61-3.12,0-6.24,0-9.36,0-.3.39-.84.6-.97,1.24.09.17.23.4.39.68ZM32.83,30.64c.75-1.15,1.84-.42,2.62-.89.5-.25.99-.51,1.53-.78-.09-.3-.17-.57-.25-.83-.46.26-.87.49-1.23.69-.34-.31-.57-.52-.79-.72h-1.85c-.23.2-.45.4-.65.57-.23-.19-.45-.37-.59-.49-.39.24-.72.44-1.05.64-.33-.26-.56-.44-.8-.63-.3.16-.59.4-.93.5-.37.12-.78.11-1.17.18-.04,0-.06.13-.08.19.29.3.58.59.85.87h1.25c.23.2.44.4.65.58.24-.21.47-.41.68-.59.63.04,1.31-.21,1.81.69ZM38.68,50.27c-.58.24-.93.38-1.28.53-.66.28-1-.41-1.62-.52-.05.29-.09.57-.13.81.4.39.82.71,1.11,1.12.21.29.26.69.41,1.12h1.46c.16.45.28.8.34.99.41-.25.84-.51,1.11-.67-.04-.67-.06-1.06-.07-1.36-.63-.63-1.31-1.11-1.33-2.02ZM272.83,26.27c-.47.1-1.02-.21-1.59.33.29.41-.33,1.05.37,1.5h1.85c.23-.2.44-.4.65-.58.24.21.47.41.7.6.42-.03.83-.04,1.23-.09.08,0,.15-.13.24-.22-.67-.55-1.06-1.46-2.07-1.59-.26.22-.48.42-.73.63-.21-.19-.42-.38-.65-.58ZM41.6,52.63c.71-.08,1.43.18,2.15-.21-.2-.3-.46-.57-.55-.89-.13-.44.18-1-.35-1.36-.68.08-1.4-.18-2.12.21v1.35c.32.33.6.62.87.9ZM266.77,42.63c.07-.86-.91-.07-1.03-.63-.12-.35-.23-.7-.35-1.04-.56.13-1.11-.19-1.65.33.03.38.06.85.12,1.32,0,.08.13.15.18.21.85,0,1.67,0,2.49,0,.08,0,.15-.12.23-.18ZM285.69,30.27c.1.28-.25.81-.21.8,1.03-.66,1.64-1.05,2.19-1.4-.21-.65.13-1.22-.44-1.57-.48.11-1.03-.22-1.45.22-.32.62.15.93.53,1.29-.2.21-.4.43-.61.65ZM267.18,16.46c.28-.34.76-.54.86-1.08-.46-.15-.56-.82-1.18-.76-1.42,1.04-1.54,1.29-.89,1.84.4,0,.8,0,1.21,0ZM277.86,28.11h1.34c.14-.16.3-.46.55-.59.27-.15.8.2.84-.63-1.1,0-2.2-.01-3.3.02-.11,0-.21.23-.31.35.3.29.59.57.87.86ZM260.31,42.82c.48-.11,1.03.21,1.47-.21-.06-.6-.57-.32-.88-.43-.58-.57-1.16-1.14-1.76-1.71-.03-.03-.14.02-.21.03q-.14.82,1.38,2.33ZM282.61,27.85c-.07-.34-.13-.61-.26-1.27-.47.56-.75.9-1.04,1.24.18.16,2.44,1.53,2.54,1.51.18-.04.35-.15.52-.23-.28-.87-1.27-.78-1.76-1.24ZM29.23,45.27q-1.67.01-2.36.48c.38.05.67.14.95.12.69-.04,1.41.19,2.07-.16.12-.58.35-1.15-.24-1.71-.13.38-.24.72-.43,1.27ZM23.13,44.94c.35.28.55.74,1.26.88,0-.7.02-1.37-.02-2.04,0-.1-.24-.19-.37-.28-.26.41-.87.56-.86,1.44ZM269.4,40.68c-.29-.28-.57-.56-.86-.84-.57-.04-1.17-.34-1.7.28.38.12.77.18,1.07.37.32.2.53.59,1.02.49.14-.09.3-.2.46-.3ZM271.94,16.73c.3.33.52.76,1.04.84.27-.28.53-.56.74-.79-.32-.36-.59-.66-.86-.96-.33.32-.63.61-.92.9ZM33.87,51.35c-.1-.54-.16-.81-.24-1.21-.43.08-.78.14-1.17.22.08.41.13.68.19,1h1.22ZM92.5,2.72c1.51.28,1.51.27,1.95-.16-.55-.31-1.11-.31-1.95.16ZM275.87,20.29c.37-.51.87-.69.94-1.2-.37-.27-.71-.29-1.16.12.06.27.12.61.22,1.08ZM266.18,39.64c-1.29-.52-1.29-.51-1.75,0,.34.04.62.11.9.11.28,0,.56-.07.84-.11ZM270.66,53.55c-.64-.51-1.26-.51-1.9,0,.64.51,1.26.51,1.9,0ZM37.8,56.39c.49-.51.46-.85.09-1.31-.29.04-.63.1-.69.11.18.37.39.78.6,1.2ZM257.61,15.15l.4-.02c.04-.27.09-.54.1-.82,0-.07-.15-.21-.2-.2-.15.04-.39.13-.4.22-.02.27.06.54.1.81ZM260.67,14.93c-.57-.4-.97-.58-1.23.09.37.33.71.31,1.23-.09ZM277.63,17.8c0,.13.01.26.02.39.28.04.56.09.84.1.07,0,.21-.15.2-.19-.04-.14-.14-.38-.22-.39-.27-.02-.55.06-.83.1ZM279.42,19.83c-.42-.44-.84-.44-1.26,0,.42.44.84.44,1.26,0ZM281.39,29.45c0,.13.01.26.02.39.28.04.56.09.84.1.07,0,.21-.15.2-.19-.04-.14-.14-.38-.22-.39-.27-.02-.55.06-.83.1ZM37.85,63.71c.41-.56.59-.95-.09-1.2-.34.36-.32.7.09,1.2ZM46.63,51.4c-.45.41-.45.82,0,1.23.45-.41.45-.82,0-1.23ZM265.01,38.22c.42.44.84.44,1.26,0-.42-.44-.84-.44-1.26,0ZM280.13,37.42c0,.13.01.26.02.39.28.04.56.09.84.1.07,0,.21-.15.2-.19-.04-.14-.14-.38-.22-.39-.27-.02-.55.06-.83.1ZM255.7,14.4c.08.08.15.15.22.22.07-.14.16-.27.2-.41.01-.05-.13-.13-.2-.2-.08.13-.15.27-.22.39ZM281.08,14.1c-.13.07-.27.14-.4.22.07.07.15.2.21.19.15-.03.28-.12.42-.19-.07-.07-.14-.14-.22-.22ZM264.79,15.76c.08-.08.15-.15.22-.22-.14-.07-.27-.16-.42-.19-.05-.01-.14.12-.21.19.14.07.27.15.4.22ZM270.87,16.37c.13-.07.27-.14.4-.22-.07-.07-.15-.2-.21-.19-.15.03-.28.12-.42.19.07.07.14.14.22.22ZM271.19,20.53c-.07-.13-.15-.26-.22-.39-.07.07-.21.15-.2.2.03.14.13.28.2.41.07-.07.14-.14.22-.22ZM22.41,32.18c-.07-.13-.15-.26-.22-.4-.07.07-.21.15-.2.2.03.14.13.28.2.41.07-.07.14-.14.22-.22ZM40.99,32.4c-.07.07-.21.15-.2.2.03.14.13.28.2.41.07-.07.21-.15.2-.2-.03-.14-.13-.28-.2-.41ZM32.12,33.1c-.08.08-.15.15-.22.22.14.07.27.16.42.19.05.01.14-.12.21-.19-.14-.07-.27-.15-.4-.22ZM23.22,35.25c.08.08.15.15.22.22.07-.14.16-.27.2-.41.01-.05-.13-.13-.2-.2-.08.13-.15.27-.22.39ZM20.71,36.47c.08.08.15.15.22.22.07-.14.16-.27.2-.41.01-.05-.13-.13-.2-.2-.08.13-.15.27-.22.39ZM263.67,37.7c-.07-.13-.15-.26-.22-.39-.07.07-.21.15-.2.2.03.14.13.28.2.41.07-.07.14-.14.22-.22ZM261.97,41.2c.07.13.15.26.22.39.07-.07.21-.15.2-.2-.03-.14-.13-.28-.2-.41-.07.07-.14.14-.22.22ZM30.74,44.27c.07.13.15.26.22.39.07-.07.21-.15.2-.2-.03-.14-.13-.28-.2-.41-.07.07-.14.14-.22.22ZM272.62,45.06c.08.08.15.15.22.22.07-.14.16-.27.2-.41.01-.05-.13-.13-.2-.2-.08.13-.15.27-.22.39ZM45.6,50.4c-.08-.08-.15-.15-.22-.22-.07.14-.16.27-.2.41-.01.05.13.13.2.2.08-.13.15-.27.22-.4ZM34.81,51.31c.08-.08.15-.15.22-.22-.14-.07-.27-.16-.42-.19-.05-.01-.14.12-.21.19.14.07.27.15.4.22ZM274.32,51.62c-.08-.08-.15-.15-.22-.22-.07.14-.16.27-.2.41-.01.05.13.13.2.2.08-.13.15-.27.22-.39ZM33.78,52.32c-.07-.07-.15-.2-.21-.19-.15.03-.28.12-.42.19.07.07.15.2.21.19.15-.03.28-.12.42-.19ZM42.02,56.09c.08.08.15.15.22.22.07-.14.16-.27.2-.41.01-.05-.13-.13-.2-.2-.08.13-.15.27-.22.39Z"/><path class="cls-1" d="M296.31,19.47c.04-.25.04-.55.04-.93.24-.09.51-.2.94-.37.42.54.85,1.11,1.37,1.78,0,0-.16.2-.37.47-.04.4-.09.88-.16,1.45-.3.03-.7.2-.85.07-.69-.58-1.32-1.25-2.04-1.96-.4.24-.73.43-1.24.74-.27-.38-.6-.86-.83-1.19h-1.03c-.07-.32-.14-.66-.21-.98.48-.19.84-.32,1.2-.46-.23-.4-.45-.79-.71-1.24.37-.2.61-.33,1.11-.59.24.43.48.88.72,1.33,0,0-.19.21-.4.43.45.22.89.4,1.3.66.41.26.62.8,1.16.8.1.36.06.83.6.42-.17-.14-.34-.28-.6-.42Z"/><path class="cls-1" d="M47.9,3.59c-.23.2-.45.4-.66.59-.16-.16-.31-.3-.53-.52-1.25,0-2.58,0-3.91,0-.15.14-.3.29-.47.46-.3-.17-.61-.35-1.05-.61-.27.18-.59.4-1.01.67h-1.14c-.51-.37-.46-.78-.03-1.2.22.2.44.39.66.58.16-.16.31-.31.57-.56h11.85c.39-.31.62-.49.93-.75.42.24.83.48,1.38.79.27-.18.59-.39.93-.62.39.21.34.56.22.92-.09.1-.17.23-.24.23-2.51.01-5.01,0-7.5,0Z"/><path class="cls-1" d="M32.53,4.2c-.07.17-.14.34-.23.57h-7.55c-.2.19-.34.34-.57.55-.69.29-1.51,0-2.3.1.07-.17.1-.43.23-.5.42-.22.87-.37,1.67-.69h2.61c.37-.25.68-.47,1.03-.71.44.24.86.47,1.4.76.28-.2.59-.43.9-.66.19.17.41.37.63.57.72,0,1.45,0,2.17,0Z"/><path class="cls-1" d="M291.45,17.4c-.54.38-1.03.73-1.6,1.13.32.55.56.96.84,1.44v1.1c-.52.51-1.03,1.01-1.55,1.51-.36-.44-1.07-.66-.94-1.5.36-.17.77-.37,1.18-.57.36-.72-.41-1.03-.67-1.39.82-1.35,1.32-1.86,2.03-2.03.14-.03.34.14.71.31Z"/><path class="cls-1" d="M229.92,2.36c.31,0,.62,0,.92,0,.23-.2.44-.4.66-.59.16.16.31.3.55.54h6.27c.44.42.47.77.14,1.21h-1.42c-.16-.15-.3-.3-.55-.54h-6.33c-.11-.27-.19-.45-.26-.62Z"/><path class="cls-1" d="M293.83,30.56h2.22c.24.26.51.56.93,1.04-.44.27-.93.57-1.1.68-.25.7-.01,1.17-.62,1.29-.12-.34-.25-.69-.39-1.08-.47-.05-.96-.1-1.43-.15q-.24-.23.38-.87v-.9Z"/><path class="cls-1" d="M243.07,3.41c.05-.35.09-.69.16-1.16.36.33.57.52.79.72.21-.19.43-.39.64-.59.15.15.3.29.54.53,1.05.29,2.29-.16,3.52.23-.97.58-1.46.6-5.64.27Z"/><path class="cls-1" d="M225.53,1.75c1.31,0,2.62-.02,3.92.01.3,0,.53.23.46.6h-.91c-.2.19-.42.38-.64.59-.2-.18-.41-.37-.7-.63h-1.91c-.09-.24-.16-.4-.22-.57Z"/><path class="cls-1" d="M9.08,32.8c-.72.14-1,.19-1.36.26-.16.34-.34.76-.53,1.17h-.66c-.66-.55.36-.66.31-1.07-.05-.38,0-.77,0-1.07.15-.15.22-.22.3-.29.35.52.97.56,1.94,1Z"/><path class="cls-1" d="M38.28,3.82c-.32.25-.39.37-.47.37-1.03.01-2.06.01-3.09,0-.07,0-.15-.13-.22-.2q.81-.48,3.78-.16Z"/><path class="cls-1" d="M15.61,6.04c-.55.63-1.62,1.13-2.37,1.07.02-.54.55-.71.81-1.07.52,0,1.04,0,1.56,0Z"/><path class="cls-1" d="M20.57,23.73v1.19c-.32.06-.6.11-1.02.19-.07-.38-.14-.72-.22-1.15.41-.08.69-.13,1.24-.23Z"/><path class="cls-1" d="M275.61,8.4v1.19c-.32.06-.6.11-1.02.19-.07-.38-.14-.72-.22-1.15.41-.08.69-.13,1.24-.23Z"/><path class="cls-1" d="M15.61,5.92c.8-.74,1.63-.37,2.46-.29-.75.67-1.66.21-2.46.29Z"/><path class="cls-1" d="M10.81,31.88c.61.05.28.56.43.82.14.23.44.37.91.74-.65.1-1,.15-1.31.19-.34-.67-.38-1.21-.03-1.75Z"/><path class="cls-1" d="M289.96,14.53c.7.13,1.04.19,1.51.28-.5.38-.69.85-1.28.94-.05-.28-.1-.55-.23-1.22Z"/><path class="cls-1" d="M283.83,17.68c-.03.37-.05.73-.08,1.1-.7.09-.69-.63-1.17-.65.26-.75.83-.33,1.25-.45Z"/><path class="cls-1" d="M283.76,21.98c.09-.55.14-.89.21-1.34.34.32.57.51.76.72.1.11.15.27.23.41-.17.07-.34.15-.52.2-.09.03-.2,0-.68,0Z"/><path class="cls-1" d="M3.7,35.47c0-.29,0-.57,0-.86.32-.59.76-.29,1.31-.37-.4.7-.7,1.14-1.31,1.23Z"/><path class="cls-1" d="M33.78,64.28c-.29,0-.59,0-.88,0-.54-.32-.51-.72-.14-1.15.48.27.93.56,1.02,1.15Z"/><path class="cls-1" d="M239.9,2.67c.51-.4.86-.42,1.23-.09-.26.67-.66.49-1.23.09Z"/><path class="cls-1" d="M32.48,4.29q.42-.71,1.25-.45c-.24.64-.81.21-1.25.45Z"/><path class="cls-1" d="M21.87,5.43q-.37.63-1.2.36c.23-.65.8-.25,1.2-.36Z"/><path class="cls-1" d="M278.71,10.22c-.28.04-.56.11-.83.1-.09,0-.18-.24-.22-.39-.01-.05.13-.2.2-.19.28.01.56.06.84.1,0,.13.01.26.02.39Z"/><path class="cls-1" d="M286.29,20.46c.49-.47.84-.34,1.23-.17-.29.73-.68.55-1.23.17Z"/><path class="cls-1" d="M19.05,26.27c.45.41.45.82,0,1.23-.45-.41-.45-.82,0-1.23Z"/><path class="cls-1" d="M17.17,27.45c.41.5.43.84.09,1.2-.68-.25-.5-.64-.09-1.2Z"/><path class="cls-1" d="M33.78,62.13c-.42.44-.84.44-1.26,0,.42-.44.84-.44,1.26,0Z"/><path class="cls-1" d="M36.91,59.37c0,.28.08.59-.03.82-.08.19-.39.28-.6.41v-1.23h.63Z"/><path class="cls-1" d="M26.89,53.24v-1.23c.59-.04.66.35.61.76-.03.31-.23.53-.61.46Z"/><path class="cls-1" d="M26.89,52.02q-.64-.36-.37-1.17c.67.23.25.78.37,1.17Z"/><path class="cls-1" d="M10.91,47.11c.45.41.45.82,0,1.23-.45-.41-.45-.82,0-1.23Z"/><path class="cls-1" d="M11.85,46.19c-.42.44-.84.44-1.26,0,.42-.44.84-.44,1.26,0Z"/><path class="cls-1" d="M17.49,44.35c-.42.44-.84.44-1.26,0,.42-.44.84-.44,1.26,0Z"/><path class="cls-1" d="M11.22,35.46c.12-.39-.3-.95.37-1.17q.27.81-.37,1.17Z"/><path class="cls-1" d="M242.23,2.45c.08.08.15.15.22.22-.14.07-.27.16-.42.19-.05.01-.14-.12-.21-.19.14-.07.27-.15.4-.22Z"/><path class="cls-1" d="M249.88,3.37c-.08.08-.15.15-.22.22-.07-.14-.16-.27-.2-.41-.01-.05.13-.13.2-.2.08.13.15.27.22.39Z"/><path class="cls-1" d="M19.28,5.03c-.07.13-.15.26-.22.39-.07-.07-.21-.15-.2-.2.03-.14.13-.28.2-.41.07.07.14.14.22.22Z"/><path class="cls-1" d="M4.78,12.85c.25-.29.4-.46.55-.63.42.54-.06.49-.55.63Z"/><path class="cls-1" d="M5.13,12.71c-.25.29-.4.46-.55.63-.42-.54.06-.49.55-.63Z"/><path class="cls-1" d="M289.52,17.86c-.3-.25-.47-.39-.64-.53.55-.42.5.06.64.53Z"/><path class="cls-1" d="M11,24.96c-.13-.07-.27-.14-.4-.22.07-.07.15-.2.21-.19.15.03.28.12.42.19-.07.07-.14.14-.22.22Z"/><path class="cls-1" d="M15.05,27.67c-.3-.25-.47-.39-.64-.53.55-.42.5.06.64.53Z"/><path class="cls-1" d="M15.61,28.11c-.43.02-.64-.19-.63-.61.43-.02.64.19.63.61Z"/><path class="cls-1" d="M15.54,27.94c.3.25.47.39.64.53-.55.42-.5-.06-.64-.53Z"/><path class="cls-1" d="M293.43,28.63c-.08-.08-.15-.15-.22-.22.14-.07.27-.16.42-.19.05-.01.14.12.21.19-.14.07-.27.15-.4.22Z"/><path class="cls-1" d="M293.91,30.73c-.3-.25-.47-.39-.64-.53.55-.42.5.06.64.53Z"/><path class="cls-1" d="M15.07,31.57c.07-.13.15-.26.22-.39.07.07.21.15.2.2-.03.14-.13.28-.2.41-.07-.07-.14-.14-.22-.22Z"/><path class="cls-1" d="M16.55,33.63c.07.14.16.27.2.41.01.05-.13.13-.2.2-.07-.14-.16-.27-.2-.41-.01-.05.13-.13.2-.2Z"/><path class="cls-1" d="M.64,36.25c-.3-.25-.47-.39-.64-.53.55-.42.5.06.64.53Z"/><path class="cls-1" d="M3.88,35.4c-.25.29-.4.46-.55.63-.42-.54.06-.49.55-.63Z"/><path class="cls-1" d="M.5,35.91c.3.25.47.39.64.53-.55.42-.5-.06-.64-.53Z"/><path class="cls-1" d="M18.74,40.37h-.63c.07-.17.11-.46.21-.49.38-.08.44.19.42.49Z"/><path class="cls-1" d="M18.11,40.37c.02.42-.19.63-.63.61-.02-.42.19-.63.63-.61Z"/><path class="cls-1" d="M11.13,41.99c-.08.08-.15.15-.22.22-.07-.14-.16-.27-.2-.41-.01-.05.13-.13.2-.2.08.13.15.27.22.39Z"/><path class="cls-1" d="M283.01,44.73c.25-.29.4-.46.55-.63.42.54-.06.49-.55.63Z"/><path class="cls-1" d="M269.8,45.18c-.13-.07-.27-.14-.4-.22.07-.07.15-.2.21-.19.15.03.28.12.42.19-.07.07-.14.14-.22.22Z"/><path class="cls-1" d="M277.09,44.59c-.25.29-.4.46-.55.63-.42-.54.06-.49.55-.63Z"/><path class="cls-1" d="M284.44,49.56c-.3.02-.58-.04-.5-.41.02-.1.32-.14.5-.21v.61Z"/><path class="cls-1" d="M280.36,56.31c.07.14.16.27.2.41.01.05-.13.13-.2.2-.07-.14-.16-.27-.2-.41-.01-.05.13-.13.2-.2Z"/><path class="cls-1" d="M33.71,64.11c.3.25.47.39.64.53-.55.42-.5-.06-.64-.53Z"/><path class="cls-1" d="M41.52,50.88c.13.07.27.14.4.22-.07.07-.15.2-.21.19-.15-.03-.28-.12-.42-.19.07-.07.14-.14.22-.22Z"/></svg>